<svg width="1280" height="1280" xmlns="http://www.w3.org/2000/svg"><path fill="none" d="M-1-1h1282v1282H-1z"/><g fill="#ffeb3b"><path d="M755.6 226.1c-38.4 6.1-68.6 31.6-79.9 67.6-8.8 27.8-4.6 58.3 11.5 83.2 4 6.2 20 22.8 80.6 83.4l75.6 75.8-328.9.3-329 .2-8.3 2.3c-41.2 11-69.6 43.7-74.2 85-5 45.3 22.4 87.8 66.2 102.8 16.6 5.7-1.5 5.4 350.3 5.4h324l-75.6 75.7c-47 47.1-77.2 78.1-79.6 81.8-26.6 39.9-21.8 91.1 11.7 124.5 18.6 18.7 41.7 28.2 68.5 28.3 16.9.1 29.5-2.8 44.5-10.3 16.8-8.5 6.6 1.5 202.4-195.5l144.1-145 5.2-9.5c19.6-36.4 15.9-78.7-9.8-110.4-3.2-3.9-77.2-78.5-164.6-165.7-136.9-136.7-160-159.4-167.4-164.3-15.7-10.2-31.5-15.3-50.4-16-6-.3-13.7-.1-16.9.4z" fill="#675252"/><path d="M795.3 191.5c-38.4 6.1-68.6 31.6-79.9 67.6-8.8 27.8-4.6 58.3 11.5 83.2 4 6.2 20 22.8 80.6 83.4l75.6 75.8-328.9.3-329 .2-8.3 2.3c-41.2 11-69.6 43.7-74.2 85-5 45.3 22.4 87.8 66.2 102.8 16.6 5.7-1.5 5.4 350.3 5.4h324l-75.6 75.7c-47 47.1-77.2 78.1-79.6 81.8-26.6 39.9-21.8 91.1 11.7 124.5 18.6 18.7 41.7 28.2 68.5 28.3 16.9.1 29.5-2.8 44.5-10.3 16.8-8.5 6.6 1.5 202.4-195.5l144.1-145 5.2-9.5c19.6-36.4 15.9-78.7-9.8-110.4-3.2-3.9-77.2-78.5-164.6-165.7C893.1 234.7 870 212 862.6 207.1c-15.7-10.2-31.5-15.3-50.4-16-6-.3-13.7-.1-16.9.4z" fill="#ffd140"/></g></svg>