<svg width="70.866" height="70.866" xmlns="http://www.w3.org/2000/svg"><path fill="none" d="M-1-1h582v402H-1z"/><g stroke-linejoin="round" stroke-linecap="round" stroke-width="2" stroke="#675252" fill="none"><path stroke-miterlimit="10" d="M35.722 5.944s0 0 0 0c1.9 0 4.9 6.6 9.9 16.7.7 1.3.5 1 2.9 1.4 9.8 1.4 17.4 2.5 17.8 4.3.1.5-.2 1.2-.8 2.1-1.4 2-4.6 5.1-8.5 8.8-5.3 5.1-4.6 3.3-3.8 8.1 1.6 9.5 2.7 15.8 1.3 16.8-.2.1-.4.2-.7.2-2.1 0-6.6-2.4-13.4-6-5.8-3.1-3.7-3.1-9.4 0-6.8 3.6-11.3 6-13.4 6-.3 0-.5 0-.7-.2-1.4-1-.3-7.2 1.3-16.8.8-4.8 1.6-2.9-3.8-8.1-3.9-3.8-7-6.8-8.5-8.8-.6-.9-.9-1.6-.8-2.1.4-1.8 8-2.9 17.8-4.3 2.8-.4 2.4-.5 2.9-1.4 5-10.1 8-16.7 9.9-16.7 0 0 0 0 0 0z"/><path fill="#ffd140" d="M35.722 5.944s0 0 0 0c1.9 0 4.9 6.6 9.9 16.7.7 1.3.5 1 2.9 1.4 9.8 1.4 17.4 2.5 17.8 4.3.1.5-.2 1.2-.8 2.1-1.4 2-4.6 5.1-8.5 8.8-5.3 5.1-4.6 3.3-3.8 8.1 1.6 9.5 2.7 15.8 1.3 16.8-.2.1-.4.2-.7.2-2.1 0-6.6-2.4-13.4-6-5.8-3.1-3.7-3.1-9.4 0-6.8 3.6-11.3 6-13.4 6-.3 0-.5 0-.7-.2-1.4-1-.3-7.2 1.3-16.8.8-4.8 1.6-2.9-3.8-8.1-3.9-3.8-7-6.8-8.5-8.8-.6-.9-.9-1.6-.8-2.1.4-1.8 8-2.9 17.8-4.3 2.8-.4 2.4-.5 2.9-1.4 5-10.1 8-16.7 9.9-16.7 0 0 0 0 0 0z"/></g></svg>