<svg xmlns="http://www.w3.org/2000/svg" viewBox="0 0 70.866 70.866" height="20mm" width="20mm"><path d="M35.722 5.944c1.9 0 4.9 6.6 9.9 16.7.7 1.3.5 1 2.9 1.4 9.8 1.4 17.4 2.5 17.8 4.3.1.5-.2 1.2-.8 2.1-1.4 2-4.6 5.1-8.5 8.8-5.3 5.1-4.6 3.3-3.8 8.1 1.6 9.5 2.7 15.8 1.3 16.8-.2.1-.4.2-.7.2-2.1 0-6.6-2.4-13.4-6-5.8-3.1-3.7-3.1-9.4 0-6.8 3.6-11.3 6-13.4 6-.3 0-.5 0-.7-.2-1.4-1-.3-7.2 1.3-16.8.8-4.8 1.6-2.9-3.8-8.1-3.9-3.8-7-6.8-8.5-8.8-.6-.9-.9-1.6-.8-2.1.4-1.8 8-2.9 17.8-4.3 2.8-.4 2.4-.5 2.9-1.4 5-10.1 8-16.7 9.9-16.7z" fill="#ffd140"/><path d="M51.022 55.144c-21.2-9.8-9.6-9.7-30.6 0 2.6-23.3 6.3-12-9.5-29.1 22.9-5 13 2.9 24.9-18.2 11.8 21 1.9 13.2 24.9 18.2-16.1 17.3-12.3 5.8-9.7 29.1z" fill="#ffe094"/><path d="M65.522 30.444c-1.2-.6-3-1.1-5.6-1.6-3.2-.6-7.5-1.2-13.1-2-5.8-11.8-8.4-17.8-11-17.9-2.6-.1-5.2 5.8-11.2 17.9-5.5.8-9.8 1.4-13 2-2.6.5-4.4.9-5.7 1.5-.7-1-.9-1.7-.8-2.2.5-1.6 6.6-2.4 15-3.6 1.4-.2 3-.4 4.6-.7.3 0 .6-.2.8-.5l1.5-3.1c4.2-8.6 7-14.2 8.7-14.2 1.7 0 4.3 5.5 8 13.1.6 1.3 1.3 2.7 2.1 4.2.2.3.4.5.8.5l1.8.3c10.5 1.5 17.4 2.5 17.8 4.3.2.4-.1 1.1-.7 2z" fill="#fff9c0"/><path d="M35.722 5.944s0 0 0 0c1.9 0 4.9 6.6 9.9 16.7.7 1.3.5 1 2.9 1.4 9.8 1.4 17.4 2.5 17.8 4.3.1.5-.2 1.2-.8 2.1-1.4 2-4.6 5.1-8.5 8.8-5.3 5.1-4.6 3.3-3.8 8.1 1.6 9.5 2.7 15.8 1.3 16.8-.2.1-.4.2-.7.2-2.1 0-6.6-2.4-13.4-6-5.8-3.1-3.7-3.1-9.4 0-6.8 3.6-11.3 6-13.4 6-.3 0-.5 0-.7-.2-1.4-1-.3-7.2 1.3-16.8.8-4.8 1.6-2.9-3.8-8.1-3.9-3.8-7-6.8-8.5-8.8-.6-.9-.9-1.6-.8-2.1.4-1.8 8-2.9 17.8-4.3 2.8-.4 2.4-.5 2.9-1.4 5-10.1 8-16.7 9.9-16.7 0 0 0 0 0 0z" stroke-miterlimit="10" fill="none" stroke="#675252" stroke-width="2" stroke-linecap="round" stroke-linejoin="round"/></svg>